# Blender 4.4.3
# www.blender.org
mtllib Untiasdtled.mtl
o Cube
v 0.155214 0.800094 -1.363577
v 0.155214 -0.800094 -1.363577
v 0.155214 0.800094 1.363577
v 0.155214 -0.800094 1.363577
v -0.155214 0.800094 -1.363577
v -0.155214 -0.800094 -1.363577
v -0.155214 0.800094 1.363577
v -0.155214 -0.800094 1.363577
v -0.155214 -0.800094 -0.238626
v 0.155214 0.800094 -0.238626
v -0.155214 0.800094 -0.238626
v 0.155214 -0.800094 -0.238626
v -0.155214 0.800094 -1.150518
v 0.155214 -0.800094 -1.150518
v -0.155214 -0.800094 -1.150518
v 0.155214 0.800094 -1.150518
v 0.155214 -0.017206 -1.363577
v -0.155214 -0.017206 1.363577
v 0.155214 -0.017206 1.363577
v -0.155214 -0.017206 -1.363577
v 0.155214 -0.017206 -0.238626
v -0.155214 -0.017206 -0.238626
v 0.155214 -0.017206 -1.150518
v -0.155214 -0.017206 -1.150518
v -0.155214 0.521864 1.363577
v 0.155214 0.521864 -1.363577
v 0.155214 0.521864 1.363577
v -0.155214 0.521864 -1.363577
v 0.155214 0.521864 -0.238626
v -0.155214 0.521864 -0.238626
v 0.155214 0.521864 -1.150518
v -0.155214 0.521864 -1.150518
v -0.155214 -0.800094 1.130999
v 0.155214 0.800094 1.130999
v -0.155214 0.800094 1.130999
v 0.155214 -0.800094 1.130999
v -0.155214 -0.017206 1.130999
v 0.155214 -0.017206 1.130999
v -0.155214 0.521864 1.130999
v 0.155214 0.521864 1.130999
v -0.155214 -0.800094 1.283070
v 0.155214 0.800094 1.283070
v 0.155214 -0.017206 1.283070
v 0.155214 0.521864 1.283070
v -0.155214 0.800094 1.283070
v 0.155214 -0.800094 1.283070
v -0.155214 -0.017206 1.283070
v -0.155214 0.521864 1.283070
v 0.069846 -0.800094 -1.363577
v 0.069846 0.800094 1.363577
v 0.069846 -0.800094 1.363577
v 0.069846 0.800094 -1.363577
v 0.069846 -0.800094 -0.238626
v 0.069846 0.800094 -0.238626
v 0.069846 0.800094 -1.150518
v 0.069846 -0.800094 -1.150518
v 0.069846 -0.017206 -1.363577
v 0.069846 -0.017206 1.363577
v 0.069846 0.521864 -1.363577
v 0.069846 0.521864 1.363577
v 0.069846 -0.800094 1.130999
v 0.069846 0.800094 1.130999
v 0.069846 -0.800094 1.283070
v 0.069846 0.800094 1.283070
v -0.074835 -0.800094 -1.363577
v -0.074835 0.800094 1.363577
v -0.074835 -0.800094 -0.238626
v -0.074835 -0.800094 -1.150518
v -0.074835 -0.017206 1.363577
v -0.074835 0.521864 1.363577
v -0.074835 -0.800094 1.130999
v -0.074835 -0.800094 1.283070
v -0.074835 -0.800094 1.363577
v -0.074835 0.800094 -1.363577
v -0.074835 0.800094 -0.238626
v -0.074835 0.800094 -1.150518
v -0.074835 -0.017206 -1.363577
v -0.074835 0.521864 -1.363577
v -0.074835 0.800094 1.130999
v -0.074835 0.800094 1.283070
v -0.048067 1.822624 1.161886
v 0.043078 1.822624 1.161886
v -0.048067 1.790626 1.252184
v 0.043078 1.790626 1.252184
v -0.048067 2.406997 1.368969
v 0.043078 2.406997 1.368969
v -0.048067 2.374999 1.459267
v 0.043078 2.374999 1.459267
v 0.113399 0.521864 -0.238626
v 0.113399 -0.017206 -0.238626
v 0.113399 0.521864 -1.150518
v 0.113399 -0.017206 -1.150518
v 0.113399 0.006292 -1.110471
v 0.113399 0.498366 -1.110471
v 0.113399 0.498366 -0.278674
v 0.113399 0.006292 -0.278674
v 0.155214 -0.426047 -1.363577
v 0.155214 -0.426047 1.363577
v -0.155214 -0.426047 -1.363577
v 0.155214 -0.426047 -0.238626
v -0.155214 -0.426047 -0.238626
v 0.155214 -0.426047 -1.150518
v -0.155214 -0.426047 -1.150518
v -0.155214 -0.426047 1.363577
v 0.155214 -0.426047 1.130999
v -0.155214 -0.426047 1.130999
v -0.155214 -0.426047 1.283070
v 0.155214 -0.426047 1.283070
v 0.069846 -0.426047 1.363577
v 0.069846 -0.426047 -1.363577
v -0.074835 -0.426047 -1.363577
v -0.074835 -0.426047 1.363577
v -0.155214 -0.097197 1.363577
v 0.155214 -0.097197 -1.363577
v 0.155214 -0.097197 1.363577
v -0.155214 -0.097197 -1.363577
v 0.155214 -0.097197 -0.238626
v -0.155214 -0.097197 -0.238626
v 0.155214 -0.097197 -1.150518
v -0.155214 -0.097197 -1.150518
v 0.155214 -0.097197 1.130999
v -0.155214 -0.097197 1.130999
v -0.155214 -0.097197 1.283070
v 0.155214 -0.097197 1.283070
v 0.069846 -0.097197 1.363577
v 0.069846 -0.097197 -1.363577
v -0.074835 -0.097197 -1.363577
v -0.074835 -0.097197 1.363577
v -0.155214 -0.800094 -0.536156
v 0.155214 0.800094 -0.536156
v -0.155214 0.800094 -0.536156
v 0.155214 -0.800094 -0.536156
v -0.155214 -0.017206 -0.536156
v 0.155214 -0.017206 -0.536156
v -0.155214 0.521864 -0.536156
v 0.155214 0.521864 -0.536156
v 0.069846 0.800094 -0.536156
v 0.069846 -0.800094 -0.536156
v -0.074835 -0.800094 -0.536156
v -0.074835 0.800094 -0.536156
v 0.113399 -0.017206 -0.536156
v 0.113399 0.521864 -0.536156
v 0.113399 0.006292 -0.550070
v 0.113399 0.498366 -0.550070
v 0.155214 -0.426047 -0.536156
v -0.155214 -0.426047 -0.536156
v 0.155214 -0.097197 -0.536156
v -0.155214 -0.097197 -0.536156
v -0.155214 0.800094 -0.803086
v 0.155214 -0.800094 -0.803086
v -0.155214 -0.017206 -0.803086
v -0.155214 0.521864 -0.803086
v -0.155214 -0.426047 -0.803086
v -0.155214 -0.097197 -0.803086
v -0.155214 -0.800094 -0.803086
v 0.155214 0.800094 -0.803086
v 0.155214 -0.017206 -0.803086
v 0.155214 0.521864 -0.803086
v 0.069846 0.800094 -0.803086
v 0.069846 -0.800094 -0.803086
v -0.074835 -0.800094 -0.803086
v -0.074835 0.800094 -0.803086
v 0.113399 -0.017206 -0.803086
v 0.113399 0.521864 -0.803086
v 0.113399 0.006292 -0.793555
v 0.113399 0.498366 -0.793555
v 0.155214 -0.426047 -0.803086
v 0.155214 -0.097197 -0.803086
v 0.077936 -0.426047 -0.803086
v 0.077936 -0.426047 -0.536156
v 0.077936 -0.097197 -0.803086
v 0.077936 -0.097197 -0.536156
vn -0.0000 1.0000 -0.0000
vn -0.0000 -0.0000 1.0000
vn -1.0000 -0.0000 -0.0000
vn -0.0000 -1.0000 -0.0000
vn 1.0000 -0.0000 -0.0000
vn -0.0000 -0.0000 -1.0000
vn 0.9996 0.0266 0.0035
vn -0.0000 0.3340 -0.9426
vn -0.9996 0.0266 0.0035
vn -0.0000 0.0312 0.9995
vn -0.0000 0.0302 -0.9995
vn -0.0000 0.9426 0.3340
vn -0.0000 -0.3340 0.9426
vt 0.810268 0.742620
vt 0.875000 0.742620
vt 0.875000 0.750000
vt 0.810268 0.750000
vt 0.581532 0.935268
vt 0.625000 0.935268
vt 0.625000 1.000000
vt 0.581532 1.000000
vt 0.581532 0.230469
vt 0.625000 0.230469
vt 0.625000 0.250000
vt 0.581532 0.250000
vt 0.306250 0.742620
vt 0.375000 0.742620
vt 0.375000 0.750000
vt 0.306250 0.750000
vt 0.581532 0.742620
vt 0.625000 0.742620
vt 0.625000 0.750000
vt 0.581532 0.750000
vt 0.581532 0.431250
vt 0.625000 0.431250
vt 0.625000 0.500000
vt 0.581532 0.500000
vt 0.581532 0.575850
vt 0.625000 0.575850
vt 0.625000 0.603125
vt 0.581532 0.603125
vt 0.306250 0.575850
vt 0.375000 0.575850
vt 0.375000 0.603125
vt 0.306250 0.603125
vt 0.581532 0.021321
vt 0.625000 0.021321
vt 0.625000 0.146875
vt 0.581532 0.146875
vt 0.810268 0.575850
vt 0.875000 0.575850
vt 0.875000 0.603125
vt 0.810268 0.603125
vt 0.810268 0.500000
vt 0.875000 0.500000
vt 0.875000 0.519531
vt 0.810268 0.519531
vt 0.306250 0.500000
vt 0.375000 0.500000
vt 0.375000 0.519531
vt 0.306250 0.519531
vt 0.625000 0.519531
vt 0.581532 0.519531
vt 0.581532 0.198619
vt 0.625000 0.198619
vt 0.484815 0.198619
vt 0.497312 0.198619
vt 0.497312 0.230469
vt 0.484815 0.230469
vt 0.484815 0.500000
vt 0.497312 0.500000
vt 0.497312 0.519531
vt 0.484815 0.519531
vt 0.484815 0.021321
vt 0.497312 0.021321
vt 0.497312 0.146875
vt 0.484815 0.146875
vt 0.484815 0.575850
vt 0.497312 0.575850
vt 0.497312 0.603125
vt 0.484815 0.603125
vt 0.484815 0.431250
vt 0.497312 0.431250
vt 0.484815 0.742620
vt 0.497312 0.742620
vt 0.497312 0.750000
vt 0.484815 0.750000
vt 0.497312 0.250000
vt 0.484815 0.250000
vt 0.484815 0.935268
vt 0.497312 0.935268
vt 0.497312 1.000000
vt 0.484815 1.000000
vt 0.497312 0.551381
vt 0.497312 0.551381
vt 0.581532 0.728679
vt 0.497312 0.728679
vt 0.497312 0.007380
vt 0.581532 0.007380
vt 0.484815 0.728679
vt 0.484815 0.007380
vt 0.625000 0.007380
vt 0.625000 0.728679
vt 0.375000 0.728679
vt 0.306250 0.728679
vt 0.875000 0.728679
vt 0.810268 0.728679
vt 0.581532 0.000000
vt 0.625000 0.000000
vt 0.484815 0.000000
vt 0.497312 0.000000
vt 0.693750 0.728679
vt 0.693750 0.742620
vt 0.189732 0.728679
vt 0.189732 0.742620
vt 0.693750 0.603125
vt 0.189732 0.603125
vt 0.581532 0.818750
vt 0.497312 0.818750
vt 0.497312 0.314732
vt 0.581532 0.314732
vt 0.484815 0.818750
vt 0.484815 0.314732
vt 0.189732 0.500000
vt 0.189732 0.519531
vt 0.693750 0.500000
vt 0.693750 0.519531
vt 0.693750 0.575850
vt 0.189732 0.575850
vt 0.625000 0.314732
vt 0.189732 0.750000
vt 0.625000 0.818750
vt 0.693750 0.750000
vt 0.125000 0.742620
vt 0.125000 0.750000
vt 0.125000 0.575850
vt 0.125000 0.603125
vt 0.125000 0.500000
vt 0.125000 0.519531
vt 0.125000 0.728679
vt 0.500983 0.574575
vt 0.577861 0.574575
vt 0.577861 0.599454
vt 0.500983 0.599454
vt 0.577861 0.523202
vt 0.500983 0.523202
vt 0.500983 0.552254
vt 0.375000 0.818750
vt 0.433438 0.818750
vt 0.433438 0.935268
vt 0.375000 0.935268
vt 0.375000 0.250000
vt 0.433438 0.250000
vt 0.433438 0.314732
vt 0.375000 0.314732
vt 0.433438 0.431250
vt 0.375000 0.431250
vt 0.433438 0.750000
vt 0.433438 0.728679
vt 0.433438 0.742620
vt 0.375000 0.000000
vt 0.433438 0.000000
vt 0.433438 0.007380
vt 0.375000 0.007380
vt 0.433438 0.021321
vt 0.375000 0.021321
vt 0.433438 0.603125
vt 0.433438 1.000000
vt 0.375000 1.000000
vt 0.375000 0.230469
vt 0.433438 0.230469
vt 0.433438 0.500000
vt 0.433438 0.575850
vt 0.433438 0.146875
vt 0.375000 0.146875
vt 0.433438 0.519531
vt 0.375000 0.198619
vt 0.433438 0.198619
vt 0.484815 0.174150
vt 0.433438 0.174150
vt 0.375000 0.174150
vt 0.375000 0.551381
vt 0.433438 0.551381
vt 0.581532 0.551381
vt 0.577861 0.552254
vt 0.581532 0.551381
vt 0.693750 0.551381
vt 0.810268 0.551381
vt 0.125000 0.551381
vt 0.189732 0.551381
vt 0.306250 0.551381
vt 0.625000 0.551381
vt 0.581532 0.174150
vt 0.497312 0.174150
vt 0.484815 0.551381
vt 0.625000 0.174150
vt 0.875000 0.551381
s 0
usemtl Material
f 80/1/1 45/2/1 7/3/1 66/4/1
f 70/5/2 66/6/2 7/7/2 25/8/2
f 32/9/3 13/10/3 5/11/3 28/12/3
f 63/13/4 46/14/4 4/15/4 51/16/4
f 44/17/5 42/18/5 3/19/5 27/20/5
f 59/21/6 52/22/6 1/23/6 26/24/6
f 136/25/5 130/26/5 10/27/5 29/28/5
f 138/29/4 132/30/4 12/31/4 53/32/4
f 39/33/3 35/34/3 11/35/3 30/36/3
f 140/37/1 131/38/1 11/39/1 75/40/1
f 74/41/1 5/42/1 13/43/1 76/44/1
f 49/45/4 2/46/4 14/47/4 56/48/4
f 26/24/5 1/23/5 16/49/5 31/50/5
f 152/51/3 149/52/3 13/10/3 32/9/3
f 154/53/3 151/54/3 24/55/3 120/56/3
f 114/57/5 17/58/5 23/59/5 119/60/5
f 122/61/3 37/62/3 22/63/3 118/64/3
f 147/65/5 134/66/5 21/67/5 117/68/5
f 126/69/6 57/70/6 17/58/6 114/57/6
f 124/71/5 43/72/5 19/73/5 115/74/5
f 120/56/3 24/55/3 20/75/3 116/76/3
f 128/77/2 69/78/2 18/79/2 113/80/2
f 151/54/3 152/51/3 32/9/3 24/55/3
f 17/58/5 26/24/5 31/50/5 23/59/5
f 37/62/3 39/33/3 30/36/3 22/63/3
f 157/81/1 23/59/1 92/59/1 163/82/1
f 57/70/6 59/21/6 26/24/6 17/58/6
f 43/72/5 44/17/5 27/20/5 19/73/5
f 24/55/3 32/9/3 28/12/3 20/75/3
f 69/78/2 70/5/2 25/8/2 18/79/2
f 21/67/5 29/28/5 40/83/5 38/84/5
f 47/85/3 48/86/3 39/33/3 37/62/3
f 117/68/5 21/67/5 38/84/5 121/87/5
f 123/88/3 47/85/3 37/62/3 122/61/3
f 48/86/3 45/89/3 35/34/3 39/33/3
f 29/28/5 10/27/5 34/90/5 40/83/5
f 53/32/4 12/31/4 36/91/4 61/92/4
f 75/40/1 11/39/1 35/93/1 79/94/1
f 25/95/3 7/96/3 45/89/3 48/86/3
f 113/97/3 18/98/3 47/85/3 123/88/3
f 18/98/3 25/95/3 48/86/3 47/85/3
f 38/84/5 40/83/5 44/17/5 43/72/5
f 121/87/5 38/84/5 43/72/5 124/71/5
f 40/83/5 34/90/5 42/18/5 44/17/5
f 61/92/4 36/91/4 46/14/4 63/13/4
f 79/94/1 35/93/1 45/2/1 80/1/1
f 34/90/1 62/99/1 64/100/1 42/18/1
f 71/101/4 61/92/4 63/13/4 72/102/4
f 10/27/1 54/103/1 62/99/1 34/90/1
f 67/104/4 53/32/4 61/92/4 71/101/4
f 19/73/2 27/20/2 60/105/2 58/106/2
f 77/107/6 78/108/6 59/21/6 57/70/6
f 115/74/2 19/73/2 58/106/2 125/109/2
f 127/110/6 77/107/6 57/70/6 126/69/6
f 65/111/4 49/45/4 56/48/4 68/112/4
f 1/23/1 52/113/1 55/114/1 16/49/1
f 130/26/1 137/115/1 54/103/1 10/27/1
f 139/116/4 138/29/4 53/32/4 67/104/4
f 78/108/6 74/117/6 52/22/6 59/21/6
f 72/102/4 63/13/4 51/16/4 73/118/4
f 27/20/2 3/19/2 50/119/2 60/105/2
f 42/18/1 64/100/1 50/120/1 3/19/1
f 41/121/4 72/102/4 73/118/4 8/122/4
f 28/12/6 5/11/6 74/117/6 78/108/6
f 129/123/4 139/116/4 67/104/4 9/124/4
f 6/125/4 65/111/4 68/112/4 15/126/4
f 116/76/6 20/75/6 77/107/6 127/110/6
f 20/75/6 28/12/6 78/108/6 77/107/6
f 9/124/4 67/104/4 71/101/4 33/127/4
f 33/127/4 71/101/4 72/102/4 41/121/4
f 64/100/7 62/99/7 82/99/7 84/100/7
f 54/103/1 75/40/1 79/94/1 62/99/1
f 58/106/2 60/105/2 70/5/2 69/78/2
f 125/109/2 58/106/2 69/78/2 128/77/2
f 52/113/1 74/41/1 76/44/1 55/114/1
f 137/115/1 140/37/1 75/40/1 54/103/1
f 60/105/2 50/119/2 66/6/2 70/5/2
f 64/100/1 80/1/1 66/4/1 50/120/1
f 82/99/8 81/94/8 85/94/8 86/99/8
f 79/94/9 80/1/9 83/1/9 81/94/9
f 80/1/10 64/100/10 84/100/10 83/1/10
f 62/99/11 79/94/11 81/94/11 82/99/11
f 86/99/12 85/94/12 87/1/12 88/100/12
f 81/94/3 83/1/3 87/1/3 85/94/3
f 83/1/13 84/100/13 88/100/13 87/1/13
f 84/100/5 82/99/5 86/99/5 88/100/5
f 143/128/5 144/129/5 95/130/5 96/131/5
f 136/25/4 29/28/4 89/28/4 142/25/4
f 23/59/2 31/50/2 91/50/2 92/59/2
f 29/28/6 21/67/6 90/67/6 89/28/6
f 92/59/5 91/50/5 94/132/5 93/133/5
f 142/25/5 89/28/5 95/130/5 144/129/5
f 89/28/5 90/67/5 96/131/5 95/130/5
f 163/82/5 92/59/5 93/133/5 165/134/5
f 51/135/2 109/136/2 112/137/2 73/138/2
f 6/139/6 99/140/6 111/141/6 65/142/6
f 65/142/6 111/141/6 110/143/6 49/144/6
f 4/15/2 98/145/2 109/136/2 51/135/2
f 36/91/5 105/146/5 108/147/5 46/14/5
f 8/148/3 104/149/3 107/150/3 41/151/3
f 41/151/3 107/150/3 106/152/3 33/153/3
f 12/31/5 100/154/5 105/146/5 36/91/5
f 73/138/2 112/137/2 104/155/2 8/156/2
f 15/157/3 103/158/3 99/140/3 6/139/3
f 46/14/5 108/147/5 98/145/5 4/15/5
f 49/144/6 110/143/6 97/159/6 2/46/6
f 132/30/5 145/160/5 100/154/5 12/31/5
f 33/153/3 106/152/3 101/161/3 9/162/3
f 2/46/5 97/159/5 102/163/5 14/47/5
f 155/164/3 153/165/3 103/158/3 15/157/3
f 109/136/2 125/109/2 128/77/2 112/137/2
f 99/140/6 116/76/6 127/110/6 111/141/6
f 111/141/6 127/110/6 126/69/6 110/143/6
f 98/145/2 115/74/2 125/109/2 109/136/2
f 105/146/5 121/87/5 124/71/5 108/147/5
f 104/149/3 113/97/3 123/88/3 107/150/3
f 107/150/3 123/88/3 122/61/3 106/152/3
f 100/154/5 117/68/5 121/87/5 105/146/5
f 112/137/2 128/77/2 113/80/2 104/155/2
f 103/158/3 120/56/3 116/76/3 99/140/3
f 108/147/5 124/71/5 115/74/5 98/145/5
f 110/143/6 126/69/6 114/57/6 97/159/6
f 145/160/5 147/65/5 117/68/5 100/154/5
f 106/152/3 122/61/3 118/64/3 101/161/3
f 97/159/5 114/57/5 119/60/5 102/163/5
f 153/165/3 154/53/3 120/56/3 103/158/3
f 101/161/3 118/64/3 148/166/3 146/167/3
f 147/65/6 145/160/6 170/160/6 172/65/6
f 9/162/3 101/161/3 146/167/3 129/168/3
f 150/169/5 167/170/5 145/160/5 132/30/5
f 90/67/5 141/66/5 143/128/5 96/131/5
f 164/171/5 142/25/5 144/129/5 166/172/5
f 158/173/4 136/25/4 142/25/4 164/171/4
f 165/134/5 166/172/5 144/129/5 143/128/5
f 159/174/1 162/175/1 140/37/1 137/115/1
f 155/176/4 161/177/4 139/116/4 129/123/4
f 161/177/4 160/178/4 138/29/4 139/116/4
f 156/179/1 159/174/1 137/115/1 130/26/1
f 21/67/1 134/66/1 141/66/1 90/67/1
f 22/63/3 30/36/3 135/180/3 133/181/3
f 168/182/5 157/81/5 134/66/5 147/65/5
f 118/64/3 22/63/3 133/181/3 148/166/3
f 30/36/3 11/35/3 131/183/3 135/180/3
f 162/175/1 149/184/1 131/38/1 140/37/1
f 160/178/4 150/169/4 132/30/4 138/29/4
f 158/173/5 156/179/5 130/26/5 136/25/5
f 31/50/5 16/49/5 156/179/5 158/173/5
f 56/48/4 14/47/4 150/169/4 160/178/4
f 76/44/1 13/43/1 149/184/1 162/175/1
f 119/60/5 23/59/5 157/81/5 168/182/5
f 16/49/1 55/114/1 159/174/1 156/179/1
f 68/112/4 56/48/4 160/178/4 161/177/4
f 15/126/4 68/112/4 161/177/4 155/176/4
f 55/114/1 76/44/1 162/175/1 159/174/1
f 93/133/5 94/132/5 166/172/5 165/134/5
f 31/50/4 158/173/4 164/171/4 91/50/4
f 91/50/5 164/171/5 166/172/5 94/132/5
f 14/47/5 102/163/5 167/170/5 150/169/5
f 102/163/5 119/60/5 168/182/5 167/170/5
f 146/167/3 148/166/3 154/53/3 153/165/3
f 129/168/3 146/167/3 153/165/3 155/164/3
f 141/66/5 163/82/5 165/134/5 143/128/5
f 134/66/1 157/81/1 163/82/1 141/66/1
f 133/181/3 135/180/3 152/51/3 151/54/3
f 148/166/3 133/181/3 151/54/3 154/53/3
f 135/180/3 131/183/3 149/52/3 152/51/3
f 169/170/5 171/182/5 172/65/5 170/160/5
f 167/170/2 168/182/2 171/182/2 169/170/2
f 168/182/4 147/65/4 172/65/4 171/182/4
f 145/160/1 167/170/1 169/170/1 170/160/1
